<svg width="162" height="28" viewBox="0 0 162 28" fill="none" xmlns="http://www.w3.org/2000/svg">
<path d="M11.541 6.53052C14.4036 6.53052 16.7295 8.85639 16.7295 11.719C16.7295 14.5816 14.4036 16.9075 11.541 16.9075C8.67841 16.9075 6.35254 14.5816 6.35254 11.719C6.35254 8.85639 8.67841 6.53052 11.541 6.53052Z" fill="#D9110F"/>
<path d="M23.8849 11.361C23.8849 5.00957 18.3386 0 12.0766 0C5.72522 0 0 4.7412 0 11.4504C0 18.9648 5.99359 23.3482 11.8977 23.5271H18.4281H22.5431H23.8849V11.361ZM4.92011 11.7188C4.92011 8.05109 7.87218 5.09903 11.5399 5.09903C15.2076 5.09903 18.1597 8.05109 18.1597 11.7188C18.1597 15.3865 15.2076 18.3386 11.5399 18.3386C7.87218 18.3386 4.92011 15.3865 4.92011 11.7188Z" fill="white"/>
<path d="M35.2471 6.53003H38.557L45.0874 23.5268H41.688L40.3462 20.038H33.458L32.1162 23.5268H28.7168L35.2471 6.53003ZM36.8573 11.0029L34.5315 16.8175H39.0938L36.8573 11.0029Z" fill="white"/>
<path d="M50.3644 10.9137V12.2556C50.9011 11.7188 51.5273 11.2716 52.243 11.0032C52.8692 10.7348 53.5848 10.5559 54.3899 10.5559C56.0001 10.5559 57.4315 11.1821 58.5944 12.4345C59.7573 13.6869 60.2941 15.2971 60.2941 17.1757C60.2941 19.0543 59.6679 20.575 58.5049 21.8274C57.342 23.0798 55.9107 23.706 54.3005 23.706C53.5848 23.706 52.8692 23.6166 52.243 23.3482C51.6168 23.0798 50.9906 22.722 50.3644 22.0958V27.9999H47.2334V10.9137H50.3644ZM53.6743 13.508C52.6903 13.508 51.8851 13.8658 51.1695 14.492C50.5433 15.1182 50.1855 16.1022 50.1855 17.1757C50.1855 18.3386 50.5433 19.2332 51.1695 19.8594C51.7957 20.575 52.6903 20.8434 53.6743 20.8434C54.6583 20.8434 55.4634 20.4856 56.0896 19.7699C56.7158 19.0543 57.0736 18.1597 57.0736 17.0862C57.0736 16.0128 56.7158 15.1182 56.0896 14.4025C55.4634 13.8658 54.6583 13.508 53.6743 13.508Z" fill="white"/>
<path d="M65.9318 10.9137V12.2556C66.4685 11.7188 67.0947 11.2716 67.8104 11.0032C68.4366 10.7348 69.1522 10.5559 69.9573 10.5559C71.5675 10.5559 72.9988 11.1821 74.1618 12.4345C75.3247 13.6869 75.8615 15.2971 75.8615 17.1757C75.8615 19.0543 75.2353 20.575 74.0723 21.8274C72.9094 23.0798 71.4781 23.706 69.8679 23.706C69.1522 23.706 68.4366 23.6166 67.8104 23.3482C67.1842 23.0798 66.558 22.722 65.9318 22.0958V27.9999H62.8008V10.9137H65.9318ZM69.2417 13.508C68.2576 13.508 67.4525 13.8658 66.7369 14.492C66.1107 15.1182 65.7529 16.1022 65.7529 17.1757C65.7529 18.3386 66.1107 19.2332 66.7369 19.8594C67.3631 20.575 68.2576 20.8434 69.2417 20.8434C70.2257 20.8434 71.0308 20.4856 71.657 19.7699C72.2832 19.0543 72.641 18.1597 72.641 17.0862C72.641 16.0128 72.2832 15.1182 71.657 14.4025C71.0308 13.8658 70.2257 13.508 69.2417 13.508Z" fill="white"/>
<path d="M78.0967 6.08325H81.2277V23.5273H78.0967V6.08325Z" fill="white"/>
<path d="M85.3427 5.8147C85.8794 5.8147 86.3267 5.99361 86.774 6.35144C87.2212 6.79872 87.4002 7.246 87.4002 7.78274C87.4002 8.31948 87.2212 8.85622 86.774 9.21405C86.4161 9.66133 85.8794 9.84024 85.3427 9.84024C84.8059 9.84024 84.2692 9.66133 83.9114 9.21405C83.4641 8.76677 83.2852 8.31948 83.2852 7.69329C83.2852 7.15655 83.4641 6.70926 83.9114 6.26198C84.2692 5.99361 84.7165 5.8147 85.3427 5.8147ZM83.7324 10.9137H86.8634V23.4377H83.7324V10.9137Z" fill="white"/>
<path d="M102.072 13.508L99.4773 14.9393C98.9406 14.4025 98.4933 14.0447 98.046 13.8658C97.5988 13.6869 96.9726 13.5974 96.3464 13.5974C95.1834 13.5974 94.1994 13.9553 93.4838 14.6709C92.7681 15.3866 92.4103 16.2811 92.4103 17.3546C92.4103 18.4281 92.7681 19.3227 93.4838 19.9489C94.1994 20.5751 95.094 20.9329 96.2569 20.9329C97.6882 20.9329 98.7617 20.4856 99.5668 19.5016L102.072 21.2012C100.73 22.9904 98.8511 23.7955 96.3464 23.7955C94.1099 23.7955 92.4103 23.1693 91.1579 21.8274C89.9055 20.4856 89.2793 18.9648 89.2793 17.2652C89.2793 16.0128 89.5477 14.9393 90.1739 13.8658C90.8001 12.8818 91.6052 12.0767 92.6786 11.4505C93.7521 10.8243 95.0045 10.5559 96.3464 10.5559C97.5988 10.5559 98.6722 10.8243 99.7457 11.2716C100.551 11.8978 101.356 12.6134 102.072 13.508Z" fill="white"/>
<path d="M113.253 10.9137H116.384V23.4377H113.253V22.0958C112.627 22.722 112.001 23.0798 111.375 23.3482C110.749 23.6166 110.122 23.706 109.407 23.706C107.796 23.706 106.365 23.0798 105.202 21.8274C104.039 20.575 103.413 19.0543 103.413 17.1757C103.413 15.2077 103.95 13.6869 105.113 12.4345C106.276 11.1821 107.618 10.5559 109.317 10.5559C110.122 10.5559 110.749 10.7348 111.464 11.0032C112.09 11.2716 112.717 11.7188 113.253 12.2556V10.9137ZM109.943 13.508C108.959 13.508 108.154 13.8658 107.528 14.492C106.902 15.2077 106.544 16.1022 106.544 17.1757C106.544 18.2492 106.902 19.1437 107.528 19.8594C108.154 20.575 108.959 20.9329 109.943 20.9329C110.927 20.9329 111.733 20.575 112.359 19.9489C112.985 19.2332 113.343 18.3386 113.343 17.2652C113.343 16.1917 112.985 15.2971 112.359 14.5815C111.822 13.8658 111.017 13.508 109.943 13.508Z" fill="white"/>
<path d="M120.053 6.35156H123.184V11.0033H125.062V13.687H123.184V23.5272H120.053V13.687H118.442V11.0033H120.053V6.35156Z" fill="white"/>
<path d="M126.672 10.9141H129.892V16.9971C129.892 18.16 129.982 18.9652 130.161 19.4124C130.34 19.8597 130.608 20.2175 130.966 20.4859C131.324 20.7543 131.771 20.8437 132.308 20.8437C132.844 20.8437 133.292 20.7543 133.649 20.4859C134.007 20.2175 134.276 19.8597 134.455 19.4124C134.634 19.0546 134.634 18.2495 134.634 17.0866V10.9141H137.764V16.192C137.764 18.339 137.586 19.8597 137.228 20.6648C136.78 21.6489 136.154 22.3645 135.349 22.9012C134.544 23.438 133.471 23.7064 132.218 23.7064C130.876 23.7064 129.713 23.438 128.908 22.8118C128.014 22.1856 127.477 21.291 127.119 20.2175C126.851 19.4124 126.761 18.0706 126.761 16.1025V10.9141H126.672Z" fill="white"/>
<path d="M140.18 10.9134H142.864V12.5236C143.132 11.8974 143.58 11.4501 144.027 11.0923C144.474 10.7345 145.011 10.645 145.637 10.645C146.084 10.645 146.442 10.7345 146.89 11.0028L145.906 13.6865C145.548 13.5076 145.279 13.4182 145.011 13.4182C144.564 13.4182 144.116 13.6865 143.759 14.3127C143.401 14.9389 143.222 16.1019 143.222 17.8015V18.4277V23.5268H140.091L140.18 10.9134Z" fill="white"/>
<path d="M161.023 18.1594H150.914C151.093 19.0539 151.451 19.7696 152.077 20.3063C152.703 20.8431 153.508 21.1114 154.492 21.1114C155.655 21.1114 156.639 20.6642 157.534 19.8591L160.218 21.1114C159.591 22.006 158.786 22.7217 157.802 23.1689C156.908 23.6162 155.745 23.7951 154.492 23.7951C152.524 23.7951 150.914 23.1689 149.662 21.9166C148.409 20.6642 147.783 19.1434 147.783 17.2648C147.783 15.3862 148.409 13.776 149.662 12.5236C150.914 11.2712 152.435 10.645 154.314 10.645C156.282 10.645 157.892 11.2712 159.144 12.5236C160.397 13.776 161.023 15.4757 161.023 17.5332V18.1594ZM157.892 15.6546C157.713 14.9389 157.266 14.4022 156.639 13.9549C156.013 13.5076 155.298 13.3287 154.492 13.3287C153.598 13.3287 152.882 13.5971 152.167 14.0444C151.719 14.3127 151.361 14.9389 151.004 15.6546H157.892Z" fill="white"/>
</svg>
